<svg id="Layer_1" enable-background="new 0 0 512.002 512.002" height="512" viewBox="0 0 512.002 512.002" width="512" xmlns="http://www.w3.org/2000/svg"><g><g><path d="m502.002 492.002h-156.311l65.78-373.063c.461-2.611-.135-5.3-1.656-7.472-1.521-2.173-3.843-3.652-6.455-4.112l-18.928-3.337 9.888-70.358c.769-5.469-3.042-10.525-8.511-11.294l-34.66-4.871c-5.46-.771-10.525 3.041-11.294 8.511-.769 5.469 3.042 10.525 8.511 11.294l24.757 3.479-8.398 59.764-39.61-6.984 2.072-11.755c2.874-16.289-8.042-31.88-24.334-34.754-16.291-2.868-31.881 8.044-34.753 24.334l-2.073 11.756-39.258-6.922 7.718-54.922 24.752 3.479c5.462.767 10.525-3.041 11.294-8.511.769-5.469-3.042-10.525-8.511-11.294l-34.654-4.87c-2.627-.373-5.292.319-7.41 1.916-2.118 1.596-3.515 3.969-3.884 6.595l-9.012 64.133-20.359-3.59c-5.438-.96-10.626 2.673-11.584 8.112l-73.129 414.737h-91.99c-5.522 0-10 4.478-10 10s4.478 10 10 10h492.002c5.522 0 10-4.478 10-10s-4.477-10.001-10-10.001zm-191.467-111.607c-5.439-.958-10.626 2.673-11.585 8.112l-4.341 24.621-23.634-4.167 4.341-24.622c.958-5.438-2.673-10.626-8.112-11.585-5.434-.96-10.626 2.673-11.585 8.112l-4.341 24.622-23.634-4.167 4.341-24.621c.958-5.438-2.673-10.626-8.112-11.585-5.437-.953-10.625 2.674-11.585 8.112l-4.341 24.621-23.635-4.168 4.342-24.621c.96-5.438-2.672-10.625-8.111-11.584-5.427-.965-10.625 2.672-11.584 8.111l-4.342 24.621-23.636-4.167 10.419-59.092 196.961 34.729-10.419 59.092-23.636-4.168 4.341-24.622c.959-5.438-2.672-10.625-8.112-11.584zm-145.243-132.235 196.961 34.729-10.419 59.093-23.635-4.167 4.341-24.622c.958-5.438-2.673-10.626-8.112-11.585-5.438-.953-10.626 2.672-11.585 8.112l-4.341 24.622-23.634-4.167 4.341-24.622c.958-5.438-2.673-10.626-8.112-11.585-5.433-.955-10.626 2.673-11.585 8.112l-4.341 24.622-23.634-4.167 4.341-24.623c.958-5.438-2.673-10.626-8.112-11.585-5.436-.956-10.625 2.673-11.585 8.112l-4.341 24.622-23.635-4.167 4.341-24.623c.958-5.438-2.673-10.626-8.112-11.585-5.438-.958-10.626 2.673-11.585 8.112l-4.341 24.622-23.635-4.167zm13.892-78.787 196.962 34.729-10.419 59.092-23.635-4.167 4.341-24.621c.958-5.438-2.673-10.626-8.112-11.585-5.438-.957-10.625 2.673-11.585 8.112l-4.341 24.621-23.635-4.167 4.341-24.621c.958-5.438-2.673-10.626-8.112-11.585s-10.626 2.673-11.585 8.112l-4.341 24.621-23.635-4.167 4.342-24.621c.96-5.438-2.672-10.625-8.111-11.584-5.426-.962-10.624 2.672-11.584 8.111l-4.342 24.621-23.637-4.168 4.342-24.621c.96-5.438-2.672-10.625-8.111-11.584-5.428-.963-10.624 2.673-11.584 8.111l-4.342 24.621-23.635-4.167zm108.61-94.515c.957-5.431 6.149-9.067 11.584-8.112 2.609.461 4.896 1.926 6.437 4.127 1.54 2.2 2.136 4.849 1.675 7.458l-2.073 11.755-19.696-3.473zm-94.718 15.728 196.962 34.729-10.419 59.092-23.635-4.167 4.341-24.621c.958-5.438-2.673-10.626-8.112-11.585-5.437-.952-10.625 2.673-11.585 8.112l-4.341 24.621-23.635-4.167 4.341-24.621c.958-5.438-2.673-10.626-8.112-11.585-5.438-.954-10.626 2.673-11.585 8.112l-4.341 24.621-23.634-4.167 4.341-24.621c.958-5.438-2.673-10.626-8.112-11.585-5.433-.956-10.626 2.673-11.585 8.112l-4.341 24.621-23.635-4.168 4.342-24.621c.96-5.438-2.672-10.625-8.111-11.584-5.427-.968-10.624 2.672-11.584 8.111l-4.342 24.621-23.636-4.167zm-.625 372.1-5.169 29.316h-20.308l5.782-32.79c.958-5.429 6.155-9.06 11.585-8.111 2.608.461 4.895 1.926 6.436 4.127 1.54 2.2 2.135 4.848 1.674 7.458zm90.604 15.975-2.352 13.341h-20.308l2.964-16.814c.958-5.429 6.158-9.061 11.585-8.111 2.608.461 4.895 1.926 6.436 4.127 1.54 2.2 2.136 4.849 1.675 7.457zm17.957 13.341 1.739-9.868c2.873-16.29-8.044-31.881-24.335-34.753-16.295-2.871-31.881 8.043-34.754 24.334l-3.577 20.287h-32.494l4.556-25.843c1.389-7.87-.383-15.826-4.988-22.404-4.605-6.576-11.477-10.963-19.347-12.35-7.867-1.388-15.825.384-22.401 4.988-6.577 4.605-10.964 11.476-12.351 19.346l-6.394 36.263h-24.37l15.211-86.267 196.961 34.729-9.087 51.538z"/><path d="m305.196 31.135c5.522 0 10-4.478 10-10s-4.478-10-10-10h-.008c-5.522 0-9.996 4.478-9.996 10s4.482 10 10.004 10z"/></g></g></svg>